<svg width="200" height="72" viewBox="0 0 200 72" fill="none" xmlns="http://www.w3.org/2000/svg">
<path d="M90.0156 28.2031H83.1719C83.0469 27.3177 82.7917 26.5312 82.4063 25.8437C82.0208 25.1458 81.526 24.5521 80.9219 24.0625C80.3177 23.5729 79.6198 23.1979 78.8281 22.9375C78.0469 22.6771 77.1979 22.5469 76.2813 22.5469C74.625 22.5469 73.1823 22.9583 71.9531 23.7812C70.724 24.5937 69.7708 25.7812 69.0938 27.3438C68.4167 28.8958 68.0781 30.7812 68.0781 33C68.0781 35.2812 68.4167 37.1979 69.0938 38.75C69.7813 40.3021 70.7396 41.474 71.9687 42.2656C73.1979 43.0573 74.6198 43.4531 76.2344 43.4531C77.1406 43.4531 77.9792 43.3333 78.75 43.0938C79.5313 42.8542 80.224 42.5052 80.8281 42.0469C81.4323 41.5781 81.9323 41.0104 82.3281 40.3438C82.7344 39.6771 83.0156 38.9167 83.1719 38.0625L90.0156 38.0937C89.8385 39.5625 89.3958 40.9792 88.6875 42.3438C87.9896 43.6979 87.0469 44.9115 85.8594 45.9844C84.6823 47.0469 83.276 47.8906 81.6406 48.5156C80.0156 49.1302 78.1771 49.4375 76.125 49.4375C73.2708 49.4375 70.7188 48.7917 68.4688 47.5C66.2292 46.2083 64.4583 44.3385 63.1562 41.8906C61.8646 39.4427 61.2188 36.4792 61.2188 33C61.2188 29.5104 61.875 26.5417 63.1875 24.0938C64.5 21.6458 66.2813 19.7812 68.5313 18.5C70.7813 17.2083 73.3125 16.5625 76.125 16.5625C77.9792 16.5625 79.6979 16.8229 81.2813 17.3437C82.875 17.8646 84.2865 18.625 85.5156 19.625C86.7448 20.6146 87.7448 21.8281 88.5156 23.2656C89.2969 24.7031 89.7969 26.349 90.0156 28.2031ZM94.2592 49V29.3636H99.7053V49H94.2592ZM96.995 26.8324C96.1854 26.8324 95.4908 26.5639 94.9112 26.027C94.3402 25.4815 94.0547 24.8295 94.0547 24.071C94.0547 23.321 94.3402 22.6776 94.9112 22.1406C95.4908 21.5952 96.1854 21.3224 96.995 21.3224C97.8047 21.3224 98.495 21.5952 99.0661 22.1406C99.6456 22.6776 99.9354 23.321 99.9354 24.071C99.9354 24.8295 99.6456 25.4815 99.0661 26.027C98.495 26.5639 97.8047 26.8324 96.995 26.8324ZM109.514 37.6477V49H104.068V29.3636H109.258V32.8281H109.488C109.923 31.6861 110.652 30.7827 111.674 30.1179C112.697 29.4446 113.937 29.108 115.395 29.108C116.758 29.108 117.947 29.4062 118.961 30.0028C119.975 30.5994 120.764 31.4517 121.326 32.5597C121.889 33.6591 122.17 34.9716 122.17 36.4972V49H116.724V37.4688C116.733 36.267 116.426 35.3295 115.804 34.6562C115.181 33.9744 114.325 33.6335 113.234 33.6335C112.501 33.6335 111.853 33.7912 111.291 34.1065C110.737 34.4219 110.302 34.8821 109.987 35.4872C109.68 36.0838 109.522 36.804 109.514 37.6477ZM135.411 49.3835C133.391 49.3835 131.653 48.9744 130.195 48.1562C128.746 47.3295 127.63 46.1619 126.846 44.6534C126.062 43.1364 125.67 41.3423 125.67 39.2713C125.67 37.2514 126.062 35.4787 126.846 33.9531C127.63 32.4276 128.734 31.2386 130.157 30.3864C131.589 29.5341 133.268 29.108 135.194 29.108C136.489 29.108 137.695 29.3168 138.812 29.7344C139.937 30.1435 140.917 30.7614 141.752 31.5881C142.596 32.4148 143.252 33.4545 143.721 34.7074C144.19 35.9517 144.424 37.4091 144.424 39.0795V40.5753H127.843V37.2003H139.298C139.298 36.4162 139.127 35.7216 138.786 35.1165C138.445 34.5114 137.972 34.0384 137.367 33.6974C136.771 33.348 136.076 33.1733 135.283 33.1733C134.457 33.1733 133.724 33.3651 133.085 33.7486C132.454 34.1236 131.96 34.6307 131.602 35.2699C131.244 35.9006 131.06 36.6037 131.052 37.3793V40.5881C131.052 41.5597 131.231 42.3991 131.589 43.1065C131.955 43.8139 132.471 44.3594 133.136 44.7429C133.8 45.1264 134.589 45.3182 135.501 45.3182C136.106 45.3182 136.66 45.233 137.163 45.0625C137.665 44.892 138.096 44.6364 138.454 44.2955C138.812 43.9545 139.085 43.5369 139.272 43.0426L144.309 43.375C144.053 44.5852 143.529 45.642 142.737 46.5455C141.952 47.4403 140.938 48.1392 139.694 48.642C138.458 49.1364 137.031 49.3835 135.411 49.3835ZM147.978 49V29.3636H153.168V32.8281H153.398C153.808 31.6776 154.489 30.7699 155.444 30.1051C156.398 29.4403 157.54 29.108 158.87 29.108C160.217 29.108 161.363 29.4446 162.309 30.1179C163.255 30.7827 163.886 31.6861 164.201 32.8281H164.406C164.806 31.7031 165.531 30.804 166.579 30.1307C167.636 29.4489 168.884 29.108 170.325 29.108C172.157 29.108 173.644 29.6918 174.786 30.8594C175.937 32.0185 176.512 33.6634 176.512 35.794V49H171.079V36.8679C171.079 35.777 170.789 34.9588 170.21 34.4134C169.63 33.8679 168.906 33.5952 168.036 33.5952C167.048 33.5952 166.276 33.9105 165.722 34.5412C165.168 35.1634 164.891 35.9858 164.891 37.0085V49H159.612V36.7528C159.612 35.7898 159.335 35.0227 158.781 34.4517C158.235 33.8807 157.515 33.5952 156.62 33.5952C156.015 33.5952 155.469 33.7486 154.984 34.0554C154.506 34.3537 154.127 34.7756 153.846 35.321C153.565 35.858 153.424 36.4886 153.424 37.2131V49H147.978ZM186.413 49.3707C185.161 49.3707 184.044 49.1534 183.064 48.7188C182.084 48.2756 181.308 47.6236 180.737 46.7628C180.175 45.8935 179.893 44.8111 179.893 43.5156C179.893 42.4247 180.094 41.5085 180.494 40.767C180.895 40.0256 181.44 39.429 182.131 38.9773C182.821 38.5256 183.605 38.1847 184.483 37.9545C185.369 37.7244 186.298 37.5625 187.27 37.4688C188.412 37.3494 189.332 37.2386 190.031 37.1364C190.73 37.0256 191.237 36.8636 191.553 36.6506C191.868 36.4375 192.026 36.1222 192.026 35.7045V35.6278C192.026 34.8182 191.77 34.1918 191.259 33.7486C190.756 33.3054 190.04 33.0838 189.111 33.0838C188.131 33.0838 187.351 33.3011 186.771 33.7358C186.192 34.1619 185.808 34.6989 185.621 35.3466L180.584 34.9375C180.839 33.7443 181.342 32.7131 182.092 31.8438C182.842 30.9659 183.81 30.2926 184.994 29.8239C186.188 29.3466 187.568 29.108 189.136 29.108C190.227 29.108 191.271 29.2358 192.268 29.4915C193.274 29.7472 194.165 30.1435 194.94 30.6804C195.724 31.2173 196.342 31.9077 196.794 32.7514C197.246 33.5866 197.472 34.5881 197.472 35.7557V49H192.307V46.277H192.153C191.838 46.8906 191.416 47.4318 190.888 47.9006C190.359 48.3608 189.724 48.723 188.983 48.9872C188.241 49.2429 187.385 49.3707 186.413 49.3707ZM187.973 45.6122C188.774 45.6122 189.482 45.4545 190.095 45.1392C190.709 44.8153 191.19 44.3807 191.54 43.8352C191.889 43.2898 192.064 42.6719 192.064 41.9815V39.8977C191.893 40.0085 191.659 40.1108 191.361 40.2045C191.071 40.2898 190.743 40.3707 190.376 40.4474C190.01 40.5156 189.643 40.5795 189.277 40.6392C188.911 40.6903 188.578 40.7372 188.28 40.7798C187.641 40.8736 187.082 41.0227 186.605 41.2273C186.128 41.4318 185.757 41.7088 185.493 42.0582C185.229 42.3991 185.097 42.8253 185.097 43.3366C185.097 44.0781 185.365 44.6449 185.902 45.0369C186.447 45.4205 187.138 45.6122 187.973 45.6122Z" fill="url(#paint0_linear_2_48)"/>
<path d="M90.0156 28.2031V29.2031H91.1405L91.0087 28.086L90.0156 28.2031ZM83.1719 28.2031L82.1817 28.3429L82.3031 29.2031H83.1719V28.2031ZM82.4063 25.8437L81.5308 26.3272L81.534 26.3328L82.4063 25.8437ZM80.9219 24.0625L80.2923 24.8394L80.2923 24.8394L80.9219 24.0625ZM78.8281 22.9375L78.5119 23.8862L78.5157 23.8874L78.8281 22.9375ZM71.9531 23.7812L72.5046 24.6155L72.5094 24.6122L71.9531 23.7812ZM69.0938 27.3438L70.0103 27.7436L70.0113 27.7414L69.0938 27.3438ZM69.0938 38.75L68.1772 39.1499L68.1794 39.155L69.0938 38.75ZM71.9687 42.2656L71.4273 43.1063L71.4273 43.1063L71.9687 42.2656ZM78.75 43.0938L78.4568 42.1377L78.4532 42.1388L78.75 43.0938ZM80.8281 42.0469L81.4325 42.8436L81.4411 42.837L80.8281 42.0469ZM82.3281 40.3438L81.4741 39.8233L81.4683 39.8332L82.3281 40.3438ZM83.1719 38.0625L83.1764 37.0625L82.3389 37.0587L82.1882 37.8826L83.1719 38.0625ZM90.0156 38.0937L91.0084 38.2134L91.1428 37.0989L90.0202 37.0938L90.0156 38.0937ZM88.6875 42.3438L87.7999 41.883L87.7986 41.8856L88.6875 42.3438ZM85.8594 45.9844L86.5294 46.7267L86.5298 46.7264L85.8594 45.9844ZM81.6406 48.5156L81.9944 49.451L81.9976 49.4497L81.6406 48.5156ZM68.4688 47.5L67.9691 48.3663L67.9709 48.3673L68.4688 47.5ZM63.1562 41.8906L62.2718 42.3573L62.2734 42.3602L63.1562 41.8906ZM63.1875 24.0938L64.0688 24.5663L64.0688 24.5663L63.1875 24.0938ZM68.5313 18.5L69.0261 19.369L69.0291 19.3673L68.5313 18.5ZM81.2813 17.3437L80.9688 18.2937L80.9706 18.2943L81.2813 17.3437ZM85.5156 19.625L84.8845 20.4007L84.8885 20.4039L85.5156 19.625ZM88.5156 23.2656L87.6343 23.7382L87.637 23.7431L88.5156 23.2656ZM90.0156 27.2031H83.1719V29.2031H90.0156V27.2031ZM84.1621 28.0633C84.022 27.0716 83.7321 26.1639 83.2785 25.3547L81.534 26.3328C81.8512 26.8986 82.0717 27.5638 82.1817 28.3429L84.1621 28.0633ZM83.2816 25.3603C82.8356 24.5526 82.2582 23.8583 81.5515 23.2856L80.2923 24.8394C80.7938 25.2459 81.2061 25.7391 81.5309 26.3272L83.2816 25.3603ZM81.5515 23.2856C80.8464 22.7142 80.0393 22.2832 79.1406 21.9876L78.5157 23.8874C79.2003 24.1126 79.789 24.4316 80.2923 24.8394L81.5515 23.2856ZM79.1444 21.9888C78.2503 21.6908 77.2934 21.5469 76.2813 21.5469V23.5469C77.1025 23.5469 77.8434 23.6634 78.5119 23.8862L79.1444 21.9888ZM76.2813 21.5469C74.4515 21.5469 72.8099 22.0042 71.3968 22.9503L72.5094 24.6122C73.5547 23.9124 74.7985 23.5469 76.2813 23.5469V21.5469ZM71.4017 22.947C69.9867 23.8824 68.9181 25.2341 68.1762 26.9461L70.0113 27.7414C70.6236 26.3284 71.4612 25.3051 72.5046 24.6155L71.4017 22.947ZM68.1772 26.9439C67.4308 28.6547 67.0781 30.6844 67.0781 33H69.0781C69.0781 30.8781 69.4025 29.1369 70.0103 27.7436L68.1772 26.9439ZM67.0781 33C67.0781 35.3737 67.4295 37.436 68.1772 39.1499L70.0103 38.3501C69.4038 36.9598 69.0781 35.1888 69.0781 33H67.0781ZM68.1794 39.155C68.933 40.8562 70.0088 42.1928 71.4273 43.1063L72.5102 41.4249C71.4703 40.7551 70.6295 39.748 70.0081 38.345L68.1794 39.155ZM71.4273 43.1063C72.8345 44.0127 74.4485 44.4531 76.2344 44.4531V42.4531C74.7911 42.4531 73.5613 42.1019 72.5102 41.4249L71.4273 43.1063ZM76.2344 44.4531C77.2291 44.4531 78.1689 44.3216 79.0468 44.0487L78.4532 42.1388C77.7894 42.3451 77.0522 42.4531 76.2344 42.4531V44.4531ZM79.0432 44.0498C79.928 43.7785 80.7278 43.3782 81.4325 42.8436L80.2237 41.2502C79.7202 41.6322 79.1345 41.9299 78.4568 42.1377L79.0432 44.0498ZM81.4411 42.837C82.1458 42.2902 82.729 41.6273 83.188 40.8543L81.4683 39.8332C81.1356 40.3936 80.7188 40.866 80.2151 41.2568L81.4411 42.837ZM83.1821 40.8641C83.6588 40.0818 83.9797 39.2036 84.1556 38.2424L82.1882 37.8826C82.0515 38.6297 81.8099 39.2724 81.4742 39.8234L83.1821 40.8641ZM83.1673 39.0625L90.0111 39.0937L90.0202 37.0938L83.1764 37.0625L83.1673 39.0625ZM89.0228 37.9741C88.8606 39.3191 88.4552 40.6207 87.8 41.883L89.5751 42.8045C90.3364 41.3377 90.8164 39.8059 91.0084 38.2134L89.0228 37.9741ZM87.7986 41.8856C87.1586 43.1275 86.2917 44.246 85.189 45.2424L86.5298 46.7264C87.802 45.5769 88.8206 44.2684 89.5764 42.8019L87.7986 41.8856ZM85.1893 45.2421C84.1129 46.2137 82.8158 46.996 81.2836 47.5815L81.9976 49.4497C83.7363 48.7853 85.2516 47.8801 86.5294 46.7267L85.1893 45.2421ZM81.2869 47.5803C79.7934 48.1451 78.0777 48.4375 76.125 48.4375V50.4375C78.2765 50.4375 80.2379 50.1153 81.9944 49.451L81.2869 47.5803ZM76.125 48.4375C73.4276 48.4375 71.0503 47.8289 68.9666 46.6327L67.9709 48.3673C70.3872 49.7544 73.1141 50.4375 76.125 50.4375V48.4375ZM68.9684 46.6337C66.903 45.4426 65.2598 43.7159 64.0391 41.421L62.2734 42.3602C63.6569 44.9612 65.5553 46.9741 67.9691 48.3663L68.9684 46.6337ZM64.0407 41.4239C62.842 39.1522 62.2188 36.3574 62.2188 33H60.2188C60.2188 36.6009 60.8872 39.7332 62.2718 42.3573L64.0407 41.4239ZM62.2188 33C62.2188 29.6339 62.8517 26.8363 64.0688 24.5663L62.3062 23.6212C60.8983 26.247 60.2188 29.387 60.2188 33H62.2188ZM64.0688 24.5663C65.2991 22.2717 66.9516 20.5503 69.0261 19.369L68.0364 17.631C65.6109 19.0122 63.7009 21.02 62.3062 23.6212L64.0688 24.5663ZM69.0291 19.3673C71.115 18.1698 73.4721 17.5625 76.125 17.5625V15.5625C73.1529 15.5625 70.4475 16.2469 68.0334 17.6327L69.0291 19.3673ZM76.125 17.5625C77.8848 17.5625 79.4969 17.8095 80.9688 18.2937L81.5937 16.3938C79.8989 15.8363 78.0735 15.5625 76.125 15.5625V17.5625ZM80.9706 18.2943C82.4546 18.7792 83.756 19.4826 84.8845 20.4007L86.1467 18.8493C84.8169 17.7674 83.2954 16.9499 81.5919 16.3932L80.9706 18.2943ZM84.8885 20.4039C86.0097 21.3066 86.9247 22.4148 87.6343 23.7382L89.3969 22.793C88.5649 21.2415 87.4798 19.9225 86.1427 18.8461L84.8885 20.4039ZM87.637 23.7431C88.3496 25.0543 88.8166 26.5747 89.0225 28.3203L91.0087 28.086C90.7772 26.1232 90.2442 24.352 89.3943 22.7881L87.637 23.7431ZM94.2592 49H93.2592V50H94.2592V49ZM94.2592 29.3636V28.3636H93.2592V29.3636H94.2592ZM99.7053 29.3636H100.705V28.3636H99.7053V29.3636ZM99.7053 49V50H100.705V49H99.7053ZM94.9112 26.027L94.2205 26.7501L94.226 26.7554L94.2316 26.7605L94.9112 26.027ZM94.9112 22.1406L95.5962 22.8691L95.5966 22.8688L94.9112 22.1406ZM99.0661 22.1406L98.3753 22.8637L98.3808 22.869L98.3864 22.8742L99.0661 22.1406ZM99.0661 26.027L99.7511 26.7555L99.7514 26.7552L99.0661 26.027ZM95.2592 49V29.3636H93.2592V49H95.2592ZM94.2592 30.3636H99.7053V28.3636H94.2592V30.3636ZM98.7053 29.3636V49H100.705V29.3636H98.7053ZM99.7053 48H94.2592V50H99.7053V48ZM96.995 25.8324C96.4305 25.8324 95.9805 25.6544 95.5908 25.2934L94.2316 26.7605C95.001 27.4734 95.9403 27.8324 96.995 27.8324V25.8324ZM95.602 25.3039C95.2193 24.9384 95.0547 24.544 95.0547 24.071H93.0547C93.0547 25.1151 93.4611 26.0247 94.2205 26.7501L95.602 25.3039ZM95.0547 24.071C95.0547 23.6106 95.216 23.2267 95.5962 22.8691L94.2262 21.4121C93.4644 22.1284 93.0547 23.0314 93.0547 24.071H95.0547ZM95.5966 22.8688C95.9871 22.5013 96.4352 22.3224 96.995 22.3224V20.3224C95.9355 20.3224 94.9944 20.689 94.2259 21.4124L95.5966 22.8688ZM96.995 22.3224C97.5546 22.3224 97.9955 22.5009 98.3753 22.8637L99.7568 21.4175C98.9945 20.6894 98.0547 20.3224 96.995 20.3224V22.3224ZM98.3864 22.8742C98.774 23.2332 98.9354 23.6158 98.9354 24.071H100.935C100.935 23.0263 100.517 22.1219 99.7457 21.4071L98.3864 22.8742ZM98.9354 24.071C98.9354 24.5389 98.7706 24.9319 98.3807 25.2988L99.7514 26.7552C100.521 26.0312 100.935 25.1202 100.935 24.071H98.9354ZM98.381 25.2985C98.0021 25.6547 97.5594 25.8324 96.995 25.8324V27.8324C98.05 27.8324 98.9879 27.4731 99.7511 26.7555L98.381 25.2985ZM109.514 37.6477L108.514 37.6376V37.6477H109.514ZM109.514 49V50H110.514V49H109.514ZM104.068 49H103.068V50H104.068V49ZM104.068 29.3636V28.3636H103.068V29.3636H104.068ZM109.258 29.3636H110.258V28.3636H109.258V29.3636ZM109.258 32.8281H108.258V33.8281H109.258V32.8281ZM109.488 32.8281V33.8281H110.178L110.423 33.1838L109.488 32.8281ZM111.674 30.1179L112.219 30.9564L112.224 30.9531L111.674 30.1179ZM121.326 32.5597L120.435 33.0124L120.436 33.0151L121.326 32.5597ZM122.17 49V50H123.17V49H122.17ZM116.724 49H115.724V50H116.724V49ZM116.724 37.4688L115.724 37.4617V37.4688H116.724ZM115.804 34.6562L115.065 35.3303L115.069 35.3349L115.804 34.6562ZM111.291 34.1065L110.802 33.2342L110.796 33.2375L111.291 34.1065ZM109.987 35.4872L109.1 35.0251L109.098 35.0299L109.987 35.4872ZM108.514 37.6477V49H110.514V37.6477H108.514ZM109.514 48H104.068V50H109.514V48ZM105.068 49V29.3636H103.068V49H105.068ZM104.068 30.3636H109.258V28.3636H104.068V30.3636ZM108.258 29.3636V32.8281H110.258V29.3636H108.258ZM109.258 33.8281H109.488V31.8281H109.258V33.8281ZM110.423 33.1838C110.782 32.2395 111.375 31.5053 112.219 30.9563L111.129 29.2795C109.929 30.06 109.064 31.1326 108.554 32.4724L110.423 33.1838ZM112.224 30.9531C113.055 30.4064 114.095 30.108 115.395 30.108V28.108C113.779 28.108 112.339 28.4828 111.124 29.2826L112.224 30.9531ZM115.395 30.108C116.609 30.108 117.617 30.3721 118.454 30.8648L119.468 29.1409C118.277 28.4404 116.908 28.108 115.395 28.108V30.108ZM118.454 30.8648C119.294 31.359 119.954 32.0647 120.435 33.0124L122.218 32.107C121.574 30.8387 120.657 29.8399 119.468 29.1409L118.454 30.8648ZM120.436 33.0151C120.911 33.9442 121.17 35.0934 121.17 36.4972H123.17C123.17 34.8498 122.866 33.3739 122.217 32.1042L120.436 33.0151ZM121.17 36.4972V49H123.17V36.4972H121.17ZM122.17 48H116.724V50H122.17V48ZM117.724 49V37.4688H115.724V49H117.724ZM117.724 37.4758C117.734 36.1014 117.381 34.8896 116.538 33.9776L115.069 35.3349C115.471 35.7695 115.731 36.4327 115.724 37.4617L117.724 37.4758ZM116.542 33.9822C115.696 33.0548 114.55 32.6335 113.234 32.6335V34.6335C114.1 34.6335 114.667 34.894 115.065 35.3303L116.542 33.9822ZM113.234 32.6335C112.354 32.6335 111.533 32.8243 110.802 33.2343L111.78 34.9788C112.174 34.7581 112.649 34.6335 113.234 34.6335V32.6335ZM110.796 33.2375C110.063 33.6547 109.498 34.262 109.1 35.0251L110.874 35.9494C111.107 35.5022 111.411 35.189 111.786 34.9756L110.796 33.2375ZM109.098 35.0299C108.704 35.7959 108.524 36.6773 108.514 37.6376L110.514 37.6578C110.521 36.9306 110.656 36.3717 110.876 35.9446L109.098 35.0299ZM130.195 48.1562L129.7 49.0248L129.706 49.0282L130.195 48.1562ZM126.846 44.6534L125.958 45.1126L125.959 45.1146L126.846 44.6534ZM126.846 33.9531L125.956 33.496L125.956 33.496L126.846 33.9531ZM130.157 30.3864L129.645 29.5271L129.643 29.5284L130.157 30.3864ZM138.812 29.7344L138.461 30.671L138.47 30.6742L138.812 29.7344ZM141.752 31.5881L141.049 32.2988L141.052 32.3024L141.752 31.5881ZM143.721 34.7074L142.784 35.0578L142.785 35.0599L143.721 34.7074ZM144.424 40.5753V41.5753H145.424V40.5753H144.424ZM127.843 40.5753H126.843V41.5753H127.843V40.5753ZM127.843 37.2003V36.2003H126.843V37.2003H127.843ZM139.298 37.2003V38.2003H140.298V37.2003H139.298ZM138.786 35.1165L137.915 35.6073L137.915 35.6073L138.786 35.1165ZM137.367 33.6974L136.862 34.5603L136.869 34.5646L136.876 34.5687L137.367 33.6974ZM133.085 33.7486L133.596 34.6081L133.599 34.6061L133.085 33.7486ZM131.602 35.2699L132.471 35.7635L132.474 35.7585L131.602 35.2699ZM131.052 37.3793L130.052 37.3683V37.3793H131.052ZM131.589 43.1065L130.696 43.5581L130.701 43.5665L131.589 43.1065ZM137.163 45.0625L136.842 44.1154L136.842 44.1154L137.163 45.0625ZM138.454 44.2955L137.764 43.5713L137.764 43.5713L138.454 44.2955ZM139.272 43.0426L139.338 42.0448L138.599 41.9961L138.337 42.688L139.272 43.0426ZM144.309 43.375L145.287 43.5817L145.526 42.4531L144.375 42.3772L144.309 43.375ZM142.737 46.5455L141.985 45.8859L141.984 45.8864L142.737 46.5455ZM139.694 48.642L140.065 49.5705L140.069 49.5692L139.694 48.642ZM135.411 48.3835C133.527 48.3835 131.964 48.0026 130.685 47.2843L129.706 49.0282C131.341 49.9462 133.256 50.3835 135.411 50.3835V48.3835ZM130.691 47.2877C129.412 46.5582 128.43 45.5336 127.733 44.1922L125.959 45.1146C126.83 46.7903 128.08 48.1009 129.7 49.0248L130.691 47.2877ZM127.734 44.1943C127.038 42.8463 126.67 41.2162 126.67 39.2713H124.67C124.67 41.4685 125.086 43.4265 125.958 45.1126L127.734 44.1943ZM126.67 39.2713C126.67 37.3823 127.036 35.7713 127.735 34.4102L125.956 33.496C125.088 35.1861 124.67 37.1206 124.67 39.2713H126.67ZM127.735 34.4102C128.437 33.0448 129.413 31.9973 130.671 31.2443L129.643 29.5284C128.054 30.48 126.823 31.8103 125.956 33.496L127.735 34.4102ZM130.668 31.2457C131.923 30.499 133.419 30.108 135.194 30.108V28.108C133.116 28.108 131.255 28.5691 129.645 29.5271L130.668 31.2457ZM135.194 30.108C136.38 30.108 137.466 30.2988 138.461 30.671L139.162 28.7978C137.924 28.3347 136.599 28.108 135.194 28.108V30.108ZM138.47 30.6742C139.462 31.0349 140.318 31.5756 141.049 32.2988L142.456 30.8773C141.516 29.9471 140.412 29.2521 139.154 28.7946L138.47 30.6742ZM141.052 32.3024C141.778 33.0138 142.36 33.9239 142.784 35.0578L144.657 34.357C144.144 32.9852 143.413 31.8158 142.452 30.8738L141.052 32.3024ZM142.785 35.0599C143.202 36.1668 143.424 37.4999 143.424 39.0795H145.424C145.424 37.3183 145.177 35.7366 144.657 34.3549L142.785 35.0599ZM143.424 39.0795V40.5753H145.424V39.0795H143.424ZM144.424 39.5753H127.843V41.5753H144.424V39.5753ZM128.843 40.5753V37.2003H126.843V40.5753H128.843ZM127.843 38.2003H139.298V36.2003H127.843V38.2003ZM140.298 37.2003C140.298 36.2668 140.093 35.3991 139.657 34.6256L137.915 35.6073C138.161 36.0441 138.298 36.5656 138.298 37.2003H140.298ZM139.657 34.6256C139.227 33.8614 138.622 33.2568 137.858 32.8262L136.876 34.5687C137.322 34.8199 137.664 35.1614 137.915 35.6073L139.657 34.6256ZM137.873 32.8346C137.101 32.3829 136.227 32.1733 135.283 32.1733V34.1733C135.925 34.1733 136.44 34.3132 136.862 34.5603L137.873 32.8346ZM135.283 32.1733C134.296 32.1733 133.381 32.4044 132.57 32.8911L133.599 34.6061C134.066 34.3257 134.618 34.1733 135.283 34.1733V32.1733ZM132.573 32.889C131.792 33.3537 131.173 33.9886 130.729 34.7813L132.474 35.7585C132.746 35.2728 133.116 34.8935 133.596 34.6081L132.573 32.889ZM130.732 34.7763C130.285 35.5644 130.062 36.4355 130.052 37.3683L132.052 37.3902C132.059 36.7718 132.203 36.2367 132.471 35.7635L130.732 34.7763ZM130.052 37.3793V40.5881H132.052V37.3793H130.052ZM130.052 40.5881C130.052 41.6817 130.254 42.6826 130.697 43.558L132.481 42.655C132.208 42.1157 132.052 41.4376 132.052 40.5881H130.052ZM130.701 43.5665C131.152 44.4368 131.799 45.1263 132.636 45.6091L133.635 43.8767C133.143 43.5925 132.759 43.191 132.477 42.6465L130.701 43.5665ZM132.636 45.6091C133.479 46.0955 134.447 46.3182 135.501 46.3182V44.3182C134.731 44.3182 134.122 44.1574 133.635 43.8767L132.636 45.6091ZM135.501 46.3182C136.2 46.3182 136.864 46.2196 137.484 46.0096L136.842 44.1154C136.455 44.2463 136.012 44.3182 135.501 44.3182V46.3182ZM137.484 46.0096C138.114 45.796 138.673 45.468 139.143 45.0196L137.764 43.5713C137.519 43.8047 137.217 43.9881 136.842 44.1154L137.484 46.0096ZM139.143 45.0196C139.617 44.5684 139.97 44.0216 140.207 43.3973L138.337 42.688C138.199 43.0522 138.006 43.3407 137.764 43.5713L139.143 45.0196ZM139.206 44.0404L144.243 44.3728L144.375 42.3772L139.338 42.0448L139.206 44.0404ZM143.331 43.1683C143.109 44.2158 142.661 45.1154 141.985 45.8859L143.488 47.205C144.397 46.1687 144.997 44.9547 145.287 43.5817L143.331 43.1683ZM141.984 45.8864C141.316 46.6493 140.437 47.2631 139.319 47.7149L140.069 49.5692C141.439 49.0153 142.589 48.2313 143.489 47.2045L141.984 45.8864ZM139.323 47.7136C138.227 48.1516 136.93 48.3835 135.411 48.3835V50.3835C137.131 50.3835 138.689 50.1211 140.065 49.5705L139.323 47.7136ZM147.978 49H146.978V50H147.978V49ZM147.978 29.3636V28.3636H146.978V29.3636H147.978ZM153.168 29.3636H154.168V28.3636H153.168V29.3636ZM153.168 32.8281H152.168V33.8281H153.168V32.8281ZM153.398 32.8281V33.8281H154.104L154.341 33.1631L153.398 32.8281ZM155.444 30.1051L154.872 29.2845L154.872 29.2845L155.444 30.1051ZM162.309 30.1179L161.729 30.9326L161.734 30.9361L162.309 30.1179ZM164.201 32.8281L163.237 33.0943L163.44 33.8281H164.201V32.8281ZM164.406 32.8281V33.8281H165.111L165.348 33.1636L164.406 32.8281ZM166.579 30.1307L167.119 30.9721L167.121 30.971L166.579 30.1307ZM174.786 30.8594L174.071 31.5586L174.077 31.5639L174.786 30.8594ZM176.512 49V50H177.512V49H176.512ZM171.079 49H170.079V50H171.079V49ZM170.21 34.4134L169.524 35.1416L169.524 35.1416L170.21 34.4134ZM165.722 34.5412L166.469 35.2062L166.474 35.2011L165.722 34.5412ZM164.891 49V50H165.891V49H164.891ZM159.612 49H158.612V50H159.612V49ZM158.781 34.4517L158.057 35.1425L158.063 35.148L158.781 34.4517ZM154.984 34.0554L155.514 34.9034L155.518 34.9009L154.984 34.0554ZM153.846 35.321L154.732 35.785L154.735 35.7793L153.846 35.321ZM153.424 49V50H154.424V49H153.424ZM148.978 49V29.3636H146.978V49H148.978ZM147.978 30.3636H153.168V28.3636H147.978V30.3636ZM152.168 29.3636V32.8281H154.168V29.3636H152.168ZM153.168 33.8281H153.398V31.8281H153.168V33.8281ZM154.341 33.1631C154.684 32.1987 155.241 31.4651 156.015 30.9257L154.872 29.2845C153.738 30.0747 152.932 31.1564 152.456 32.4931L154.341 33.1631ZM156.015 30.9257C156.779 30.3939 157.715 30.108 158.87 30.108V28.108C157.366 28.108 156.018 28.4868 154.872 29.2845L156.015 30.9257ZM158.87 30.108C160.043 30.108 160.978 30.3983 161.729 30.9326L162.889 29.3032C161.748 28.4909 160.39 28.108 158.87 28.108V30.108ZM161.734 30.9361C162.485 31.464 162.982 32.1698 163.237 33.0943L165.165 32.562C164.79 31.2024 164.025 30.1014 162.884 29.2997L161.734 30.9361ZM164.201 33.8281H164.406V31.8281H164.201V33.8281ZM165.348 33.1636C165.671 32.2565 166.248 31.5314 167.119 30.9721L166.038 29.2893C164.813 30.0766 163.942 31.1497 163.463 32.4927L165.348 33.1636ZM167.121 30.971C167.994 30.4079 169.048 30.108 170.325 30.108V28.108C168.721 28.108 167.278 28.4898 166.037 29.2904L167.121 30.971ZM170.325 30.108C171.924 30.108 173.141 30.6076 174.071 31.5586L175.501 30.1601C174.147 28.7759 172.39 28.108 170.325 28.108V30.108ZM174.077 31.5639C174.99 32.4837 175.512 33.8437 175.512 35.794H177.512C177.512 33.483 176.884 31.5533 175.496 30.1549L174.077 31.5639ZM175.512 35.794V49H177.512V35.794H175.512ZM176.512 48H171.079V50H176.512V48ZM172.079 49V36.8679H170.079V49H172.079ZM172.079 36.8679C172.079 35.6068 171.741 34.4814 170.895 33.6852L169.524 35.1416C169.837 35.4362 170.079 35.9472 170.079 36.8679H172.079ZM170.895 33.6852C170.112 32.9483 169.135 32.5952 168.036 32.5952V34.5952C168.676 34.5952 169.148 34.7875 169.524 35.1416L170.895 33.6852ZM168.036 32.5952C166.816 32.5952 165.749 32.9955 164.971 33.8813L166.474 35.2011C166.804 34.8255 167.279 34.5952 168.036 34.5952V32.5952ZM164.975 33.8762C164.223 34.7208 163.891 35.7989 163.891 37.0085H165.891C165.891 36.1727 166.113 35.6059 166.469 35.2062L164.975 33.8762ZM163.891 37.0085V49H165.891V37.0085H163.891ZM164.891 48H159.612V50H164.891V48ZM160.612 49V36.7528H158.612V49H160.612ZM160.612 36.7528C160.612 35.5879 160.27 34.5509 159.498 33.7554L158.063 35.148C158.399 35.4945 158.612 35.9916 158.612 36.7528H160.612ZM159.504 33.761C158.744 32.9653 157.748 32.5952 156.62 32.5952V34.5952C157.282 34.5952 157.727 34.7961 158.057 35.1424L159.504 33.761ZM156.62 32.5952C155.836 32.5952 155.104 32.7967 154.45 33.2099L155.518 34.9009C155.835 34.7005 156.193 34.5952 156.62 34.5952V32.5952ZM154.454 33.2074C153.81 33.6095 153.313 34.1724 152.957 34.8627L154.735 35.7793C154.941 35.3787 155.202 35.0979 155.514 34.9034L154.454 33.2074ZM152.96 34.857C152.59 35.5625 152.424 36.3584 152.424 37.2131H154.424C154.424 36.6189 154.539 36.1534 154.732 35.785L152.96 34.857ZM152.424 37.2131V49H154.424V37.2131H152.424ZM153.424 48H147.978V50H153.424V48ZM183.064 48.7188L182.652 49.63L182.659 49.6329L183.064 48.7188ZM180.737 46.7628L179.898 47.3061L179.904 47.3156L180.737 46.7628ZM180.494 40.767L179.614 40.2917L179.614 40.2917L180.494 40.767ZM182.131 38.9773L181.583 38.1405L181.583 38.1405L182.131 38.9773ZM184.483 37.9545L184.232 36.9866L184.229 36.9872L184.483 37.9545ZM187.27 37.4688L187.366 38.4642L187.374 38.4633L187.27 37.4688ZM190.031 37.1364L190.176 38.1259L190.188 38.124L190.031 37.1364ZM191.553 36.6506L190.993 35.822L190.993 35.822L191.553 36.6506ZM191.259 33.7486L190.597 34.4988L190.604 34.5043L191.259 33.7486ZM186.771 33.7358L187.364 34.5415L187.371 34.5358L186.771 33.7358ZM185.621 35.3466L185.54 36.3433L186.354 36.4094L186.581 35.6246L185.621 35.3466ZM180.584 34.9375L179.606 34.728L179.367 35.842L180.503 35.9342L180.584 34.9375ZM182.092 31.8438L182.849 32.497L182.853 32.4933L182.092 31.8438ZM184.994 29.8239L185.362 30.7537L185.366 30.7523L184.994 29.8239ZM192.268 29.4915L192.02 30.4601L192.022 30.4606L192.268 29.4915ZM194.94 30.6804L194.371 31.5026L194.375 31.5055L194.94 30.6804ZM196.794 32.7514L195.912 33.2234L195.914 33.2271L196.794 32.7514ZM197.472 49V50H198.472V49H197.472ZM192.307 49H191.307V50H192.307V49ZM192.307 46.277H193.307V45.277H192.307V46.277ZM192.153 46.277V45.277H191.543L191.264 45.8199L192.153 46.277ZM190.888 47.9006L191.545 48.6547L191.551 48.6486L190.888 47.9006ZM188.983 48.9872L189.309 49.9326L189.319 49.9292L188.983 48.9872ZM190.095 45.1392L190.552 46.0287L190.562 46.0236L190.095 45.1392ZM191.54 43.8352L190.698 43.2958L190.698 43.2958L191.54 43.8352ZM192.064 39.8977H193.064V38.055L191.519 39.0593L192.064 39.8977ZM191.361 40.2045L191.643 41.1639L191.652 41.1613L191.661 41.1585L191.361 40.2045ZM190.376 40.4474L190.559 41.4306L190.57 41.4285L190.581 41.4262L190.376 40.4474ZM189.277 40.6392L189.415 41.6296L189.426 41.628L189.438 41.6262L189.277 40.6392ZM188.28 40.7798L188.138 39.7899L188.135 39.7904L188.28 40.7798ZM186.605 41.2273L186.999 42.1464L186.999 42.1464L186.605 41.2273ZM185.493 42.0582L186.283 42.6709L186.291 42.6613L185.493 42.0582ZM185.902 45.0369L185.312 45.8446L185.32 45.8498L185.327 45.855L185.902 45.0369ZM186.413 48.3707C185.277 48.3707 184.302 48.1739 183.469 47.8046L182.659 49.6329C183.786 50.1329 185.044 50.3707 186.413 50.3707V48.3707ZM183.476 47.8076C182.66 47.4385 182.033 46.9074 181.571 46.21L179.904 47.3156C180.583 48.3397 181.508 49.1126 182.652 49.6299L183.476 47.8076ZM181.577 46.2195C181.142 45.5483 180.893 44.6666 180.893 43.5156H178.893C178.893 44.9555 179.207 46.2386 179.898 47.306L181.577 46.2195ZM180.893 43.5156C180.893 42.5432 181.072 41.8011 181.374 41.2424L179.614 40.2917C179.115 41.216 178.893 42.3062 178.893 43.5156H180.893ZM181.374 41.2424C181.697 40.6438 182.13 40.1727 182.678 39.8141L181.583 38.1405C180.751 38.6852 180.092 39.4073 179.614 40.2917L181.374 41.2424ZM182.678 39.8141C183.27 39.427 183.953 39.1273 184.737 38.9219L184.229 36.9872C183.258 37.242 182.372 37.6241 181.583 38.1405L182.678 39.8141ZM184.734 38.9225C185.566 38.7064 186.443 38.5532 187.366 38.4641L187.174 36.4734C186.153 36.5718 185.172 36.7425 184.232 36.9866L184.734 38.9225ZM187.374 38.4633C188.522 38.3434 189.458 38.2309 190.176 38.1258L189.886 36.1469C189.207 36.2464 188.302 36.3555 187.166 36.4742L187.374 38.4633ZM190.188 38.124C190.928 38.0067 191.612 37.8174 192.112 37.4792L190.993 35.822C190.863 35.9099 190.532 36.0444 189.875 36.1487L190.188 38.124ZM192.112 37.4792C192.733 37.0598 193.026 36.4162 193.026 35.7045H191.026C191.026 35.7866 191.011 35.8116 191.013 35.807C191.013 35.8058 191.015 35.8045 191.014 35.8046C191.014 35.8051 191.008 35.8114 190.993 35.822L192.112 37.4792ZM193.026 35.7045V35.6278H191.026V35.7045H193.026ZM193.026 35.6278C193.026 34.5907 192.687 33.6634 191.913 32.9929L190.604 34.5043C190.853 34.7201 191.026 35.0457 191.026 35.6278H193.026ZM191.92 32.9984C191.174 32.3414 190.189 32.0838 189.111 32.0838V34.0838C189.89 34.0838 190.337 34.2694 190.597 34.4988L191.92 32.9984ZM189.111 32.0838C187.99 32.0838 186.976 32.3324 186.171 32.9358L187.371 34.5358C187.726 34.2699 188.272 34.0838 189.111 34.0838V32.0838ZM186.179 32.9301C185.435 33.4775 184.913 34.1946 184.66 35.0685L186.581 35.6246C186.703 35.2031 186.949 34.8464 187.364 34.5414L186.179 32.9301ZM185.702 34.3499L180.665 33.9408L180.503 35.9342L185.54 36.3433L185.702 34.3499ZM181.562 35.147C181.784 34.1073 182.216 33.2313 182.849 32.497L181.335 31.1905C180.469 32.1949 179.895 33.3814 179.606 34.728L181.562 35.147ZM182.853 32.4933C183.486 31.752 184.313 31.1688 185.362 30.7537L184.626 28.894C183.306 29.4165 182.199 30.1799 181.332 31.1942L182.853 32.4933ZM185.366 30.7523C186.418 30.3315 187.668 30.108 189.136 30.108V28.108C187.468 28.108 185.957 28.3617 184.623 28.8954L185.366 30.7523ZM189.136 30.108C190.148 30.108 191.109 30.2265 192.02 30.4601L192.517 28.5228C191.434 28.2451 190.306 28.108 189.136 28.108V30.108ZM192.022 30.4606C192.924 30.6899 193.703 31.04 194.371 31.5026L195.51 29.8582C194.627 29.247 193.625 28.8044 192.515 28.5223L192.022 30.4606ZM194.375 31.5055C195.026 31.9511 195.536 32.52 195.912 33.2234L197.676 32.2794C197.149 31.2954 196.423 30.4835 195.505 29.8553L194.375 31.5055ZM195.914 33.2271C196.271 33.8863 196.472 34.7165 196.472 35.7557H198.472C198.472 34.4596 198.221 33.287 197.674 32.2757L195.914 33.2271ZM196.472 35.7557V49H198.472V35.7557H196.472ZM197.472 48H192.307V50H197.472V48ZM193.307 49V46.277H191.307V49H193.307ZM192.307 45.277H192.153V47.277H192.307V45.277ZM191.264 45.8199C191.007 46.3208 190.662 46.7639 190.224 47.1525L191.551 48.6486C192.17 48.0997 192.67 47.4605 193.043 46.7341L191.264 45.8199ZM190.231 47.1465C189.808 47.515 189.285 47.8179 188.647 48.0452L189.319 49.9292C190.163 49.6282 190.911 49.2066 191.545 48.6546L190.231 47.1465ZM188.657 48.0418C188.042 48.2539 187.299 48.3707 186.413 48.3707V50.3707C187.47 50.3707 188.441 50.2319 189.309 49.9326L188.657 48.0418ZM187.973 46.6122C188.907 46.6122 189.776 46.4275 190.552 46.0286L189.638 44.2498C189.187 44.4816 188.641 44.6122 187.973 44.6122V46.6122ZM190.562 46.0236C191.317 45.625 191.933 45.0759 192.382 44.3747L190.698 43.2958C190.448 43.6855 190.1 44.0057 189.628 44.2548L190.562 46.0236ZM192.382 44.3747C192.841 43.6575 193.064 42.8499 193.064 41.9815H191.064C191.064 42.4938 190.937 42.9221 190.698 43.2958L192.382 44.3747ZM193.064 41.9815V39.8977H191.064V41.9815H193.064ZM191.519 39.0593C191.454 39.1016 191.314 39.1711 191.061 39.2506L191.661 41.1585C192.004 41.0505 192.333 40.9154 192.609 40.7362L191.519 39.0593ZM191.079 39.2452C190.82 39.3214 190.518 39.3962 190.172 39.4687L190.581 41.4262C190.968 41.3453 191.323 41.2582 191.643 41.1639L191.079 39.2452ZM190.194 39.4643C189.834 39.5311 189.475 39.5938 189.116 39.6522L189.438 41.6262C189.812 41.5653 190.185 41.5001 190.559 41.4306L190.194 39.4643ZM189.139 39.6488C188.771 39.7001 188.438 39.7471 188.138 39.7899L188.421 41.7698C188.718 41.7273 189.05 41.6806 189.415 41.6296L189.139 39.6488ZM188.135 39.7904C187.43 39.8938 186.785 40.0624 186.211 40.3081L186.999 42.1464C187.38 41.9831 187.851 41.8534 188.425 41.7692L188.135 39.7904ZM186.211 40.3081C185.604 40.5684 185.082 40.9434 184.695 41.4551L186.291 42.6613C186.432 42.4743 186.652 42.2952 186.999 42.1464L186.211 40.3081ZM184.702 41.4457C184.278 41.9929 184.097 42.6462 184.097 43.3366H186.097C186.097 43.0044 186.179 42.8054 186.283 42.6708L184.702 41.4457ZM184.097 43.3366C184.097 44.3549 184.485 45.2405 185.312 45.8446L186.492 44.2293C186.245 44.0493 186.097 43.8014 186.097 43.3366H184.097ZM185.327 45.855C186.079 46.3838 186.984 46.6122 187.973 46.6122V44.6122C187.291 44.6122 186.816 44.4571 186.477 44.2189L185.327 45.855Z" fill="url(#paint1_linear_2_48)"/>
<path d="M25 56C38.8071 56 50 45.7025 50 33C50 20.2975 38.8071 10 25 10C11.1929 10 0 20.2975 0 33C0 45.7025 11.1929 56 25 56Z" fill="url(#paint2_linear_2_48)"/>
<path d="M13 25.3748C20.7391 23.5819 28.46 21.7932 36.1998 20C36.606 21.4538 37.008 22.8937 37.4145 24.3496C31.3713 25.7495 25.3378 27.1476 19.3046 28.5455C19.3059 28.5545 19.307 28.5632 19.3085 28.5721H37.9905C37.9936 28.6354 37.999 28.6865 37.999 28.7381C37.9994 32.4941 38.0014 36.2505 37.9983 40.0066C37.9964 42.1041 36.1282 43.8857 33.8358 43.9836C33.6127 43.9932 33.389 43.999 33.1654 43.999C28.287 44.0001 23.4087 44.0006 18.5306 43.999C17.3113 43.9987 16.2461 43.6224 15.3757 42.8451C14.5834 42.1372 14.1349 41.2692 14.0662 40.2514C14.0525 40.0482 14.0482 39.8444 14.0482 39.6409C14.0471 36.3191 14.0454 32.9975 14.0506 29.676C14.0513 29.3302 14.0097 28.9969 13.9125 28.6614C13.6076 27.611 13.3213 26.5565 13.0281 25.5032C13.0183 25.4679 13.0124 25.4315 13 25.3748ZM15.1784 33.0767V33.2508C15.1784 35.4938 15.1781 37.7369 15.1799 39.9796C15.1799 40.1022 15.1916 40.2258 15.2116 40.3472C15.4686 41.8987 16.8369 42.9699 18.5593 42.9699C23.4963 42.9699 28.4334 42.9699 33.3704 42.9694C33.5056 42.9694 33.641 42.9635 33.7757 42.9544C35.5376 42.8375 36.868 41.5336 36.868 39.9229C36.868 37.7065 36.868 35.4907 36.868 33.2743V33.0767H15.1784ZM18.6334 29.6067C18.6706 29.6618 18.6925 29.6979 18.7181 29.7314C19.2735 30.461 19.8309 31.1893 20.382 31.9217C20.4465 32.0072 20.5096 32.0413 20.6239 32.0405C21.2889 32.0355 21.954 32.0381 22.6188 32.0376C22.669 32.0376 22.7194 32.0311 22.7759 32.0269C22.7634 31.9973 22.7607 31.9805 22.751 31.968C22.1742 31.2068 21.5982 30.4446 21.0152 29.687C20.9806 29.6419 20.8908 29.6112 20.8258 29.6097C20.4668 29.6023 20.1078 29.6061 19.7489 29.6061C19.3862 29.6061 19.0234 29.6067 18.6334 29.6067ZM28.1389 32.0381C28.0983 31.9764 28.0767 31.9387 28.0506 31.9042C27.4944 31.1735 26.9359 30.4446 26.3832 29.7117C26.3214 29.6299 26.2575 29.6042 26.1529 29.6045C25.4812 29.6085 24.8093 29.6064 24.1376 29.6067C24.0939 29.6067 24.05 29.6107 23.985 29.6138C24.0165 29.6589 24.0337 29.6853 24.0524 29.7101C24.5633 30.3844 25.0893 31.0496 25.578 31.737C25.753 31.9831 25.9442 32.0556 26.251 32.0446C26.8679 32.0223 27.4866 32.0381 28.1389 32.0381ZM29.3262 29.6067C29.3647 29.6635 29.3862 29.6991 29.4114 29.7327C29.9675 30.4629 30.526 31.1917 31.0776 31.9244C31.1429 32.0117 31.2098 32.041 31.3215 32.0401C31.9811 32.0359 32.6408 32.0381 33.3004 32.0376C33.3517 32.0376 33.4027 32.0317 33.4692 32.0278C33.4497 31.9915 33.4405 31.9669 33.4253 31.9467C32.8543 31.1932 32.2841 30.4394 31.7076 29.6895C31.6728 29.6445 31.5852 29.6112 31.5215 29.61C31.139 29.6026 30.7559 29.6064 30.3729 29.6064C30.0336 29.6064 29.6942 29.6067 29.3262 29.6067ZM32.7562 24.3617C32.7178 24.3251 32.7034 24.3083 32.6862 24.2945C31.925 23.69 31.1644 23.0847 30.3997 22.4838C30.3612 22.4536 30.2821 22.4408 30.2308 22.4523C29.5467 22.6059 28.8641 22.7656 28.1809 22.9241C28.1559 22.9299 28.133 22.9417 28.0685 22.9655C28.1233 22.9985 28.1552 23.0132 28.1813 23.0338C28.8334 23.5488 29.4982 24.0514 30.1297 24.5865C30.3923 24.809 30.6222 24.8863 30.9761 24.7842C31.5509 24.618 32.1441 24.504 32.7562 24.3617ZM22.3894 26.7638C22.3616 26.7303 22.3508 26.7113 22.3347 26.6981C21.5858 26.1066 20.8346 25.5178 20.0903 24.9217C19.9978 24.8476 19.9257 24.8361 19.8111 24.8637C19.2549 24.998 18.696 25.1222 18.1386 25.2508C18.0099 25.2805 17.8823 25.3129 17.72 25.3525C17.903 25.4984 18.0608 25.6237 18.218 25.7489C18.8236 26.2303 19.4279 26.713 20.0374 27.1901C20.0903 27.2318 20.1863 27.2681 20.2481 27.2546C20.9552 27.0988 21.6597 26.933 22.3894 26.7638ZM22.9218 24.1435C22.9412 24.1773 22.9442 24.1891 22.9523 24.1953C23.717 24.8035 24.4806 25.4128 25.2506 26.0156C25.3001 26.0542 25.4047 26.0629 25.4736 26.0477C26.1184 25.9047 26.7609 25.7538 27.4039 25.6043C27.457 25.5922 27.5083 25.5747 27.5828 25.5534C26.8216 24.9501 26.0782 24.3691 25.3478 23.7754C25.1939 23.6504 25.0589 23.6254 24.8754 23.6878C24.75 23.7307 24.6146 23.7494 24.4837 23.7799C23.9676 23.9001 23.4514 24.0197 22.9218 24.1435ZM15.187 32.0285H17.4195C17.418 32.0089 17.4211 31.9963 17.416 31.9892C16.8291 31.2152 16.2422 30.4411 15.6522 29.6686C15.6296 29.639 15.5811 29.6122 15.5425 29.6097C15.4273 29.6019 15.311 29.6067 15.1873 29.6067L15.187 32.0285ZM15.0271 28.4694C15.7625 28.2988 16.4805 28.1324 17.2452 27.9549C17.1795 27.9105 17.1448 27.8905 17.1141 27.8661C16.4091 27.31 15.7044 26.7535 15.0003 26.1968C14.7651 26.011 14.6806 26.0029 14.378 26.1492C14.593 26.9172 14.8082 27.687 15.0271 28.4694ZM34.6683 29.6126C35.2454 30.3708 35.8121 31.0998 36.3565 31.8423C36.4923 32.0275 36.6378 32.0739 36.8567 32.0196V29.6122L34.6683 29.6126ZM35.3789 21.2558C34.6709 21.4207 33.9829 21.5807 33.2945 21.7408L33.2782 21.7864C33.3086 21.8035 33.3419 21.8174 33.3684 21.8383C34.0688 22.3905 34.7755 22.9359 35.4631 23.5008C35.6448 23.6498 35.8 23.7046 36.0284 23.5815C35.8137 22.813 35.5978 22.0389 35.3789 21.2558Z" fill="white"/>
<path d="M23.1817 35C23.2139 35.0161 23.2601 35.0351 23.303 35.0608C24.5911 35.8401 25.879 36.6198 27.1668 37.3995C27.4006 37.5409 27.6342 37.6826 27.8677 37.8248C28.044 37.9325 28.0447 38.0761 27.8661 38.1844C26.5568 38.9788 25.2469 39.7719 23.9375 40.5652C23.7256 40.6936 23.5146 40.8228 23.3017 40.9491C23.1192 41.0575 23.0013 40.9899 23.0013 40.7735C23.0003 38.9252 23.0013 37.0767 23 35.2282C23 35.1066 23.0334 35.019 23.1817 35Z" fill="white"/>
<defs>
<linearGradient id="paint0_linear_2_48" x1="129.5" y1="6" x2="129.5" y2="59" gradientUnits="userSpaceOnUse">
<stop stop-color="#F89E00"/>
<stop offset="1" stop-color="#DA2F68"/>
</linearGradient>
<linearGradient id="paint1_linear_2_48" x1="129.5" y1="6" x2="129.5" y2="59" gradientUnits="userSpaceOnUse">
<stop stop-color="#F89E00" stop-opacity="0.61"/>
<stop offset="1" stop-color="#F89E00" stop-opacity="0"/>
<stop offset="1" stop-color="#DA2F68" stop-opacity="0.56"/>
</linearGradient>
<linearGradient id="paint2_linear_2_48" x1="1.23763" y1="40.8537" x2="54.7291" y2="20.8644" gradientUnits="userSpaceOnUse">
<stop stop-color="#F89E00"/>
<stop offset="1" stop-color="#DA2F68"/>
</linearGradient>
</defs>
</svg>
